<?xml version="1.0" encoding="UTF-8" standalone="no"?>
<!-- Created with Inkscape (http://www.inkscape.org/) -->

<svg
   width="512"
   height="512"
   viewBox="0 0 135.46666 135.46667"
   version="1.1"
   id="svg3404"
   inkscape:version="1.1.2 (b8e25be833, 2022-02-05)"
   sodipodi:docname="icon.svg"
   xmlns:inkscape="http://www.inkscape.org/namespaces/inkscape"
   xmlns:sodipodi="http://sodipodi.sourceforge.net/DTD/sodipodi-0.dtd"
   xmlns="http://www.w3.org/2000/svg"
   xmlns:svg="http://www.w3.org/2000/svg">
  <sodipodi:namedview
     id="namedview3406"
     pagecolor="#ffffff"
     bordercolor="#666666"
     borderopacity="1.0"
     inkscape:pageshadow="2"
     inkscape:pageopacity="0.0"
     inkscape:pagecheckerboard="0"
     inkscape:document-units="px"
     showgrid="false"
     units="px"
     inkscape:zoom="0.88671875"
     inkscape:cx="255.43612"
     inkscape:cy="256"
     inkscape:window-width="1366"
     inkscape:window-height="705"
     inkscape:window-x="-8"
     inkscape:window-y="-8"
     inkscape:window-maximized="1"
     inkscape:current-layer="layer1" />
  <defs
     id="defs3401" />
  <g
     inkscape:label="Layer 1"
     inkscape:groupmode="layer"
     id="layer1">
    <g
       transform="matrix(0.59091924,0,0,0.59091924,171.53182,277.53021)"
       id="g1049-7-8"
       style="stroke-width:1.12376">
      <path
         sodipodi:nodetypes="ccccc"
         inkscape:connector-curvature="0"
         id="path988-2-0"
         d="m -201.75022,-312.95624 0.19456,-7.79727 26.44001,-1.0059 -0.17517,5.67269 z"
         style="fill:#cecece;fill-opacity:1;stroke:none;stroke-width:0.297329px;stroke-linecap:butt;stroke-linejoin:miter;stroke-opacity:1" />
      <path
         sodipodi:nodetypes="csccccccc"
         inkscape:connector-curvature="0"
         id="path982-9-3"
         d="m -238.63223,-273.06851 c 0,0 69.35471,-2.597 82.57938,-0.50207 6.58814,1.04363 14.90011,10.21078 21.11244,11.96058 11.25754,2.49407 22.73099,2.73447 34.22396,2.44328 l 2.578549,-12.38816 c -21.968749,-16.47667 -26.706519,-41.13004 -56.049529,-44.7075 -29.54955,-3.62434 -55.45989,3.50937 -83.60371,10.90483 l -12.72229,19.38636 z"
         style="fill:#e3e3e3;fill-opacity:1;stroke:none;stroke-width:0.297329px;stroke-linecap:butt;stroke-linejoin:miter;stroke-opacity:1" />
      <path
         sodipodi:nodetypes="cscczccscccccccccscc"
         inkscape:connector-curvature="0"
         id="path986-2-4"
         d="m -183.99539,-420.23415 c 0,0 5.62658,29.88863 7.11221,45.26555 1.48563,15.37692 1.82709,39.3854 1.82709,39.3854 10.17247,6.84099 16.81686,9.07916 32.01588,11.66644 0,0 -55.73945,6.98778 -68.17431,3.08692 -12.43484,-3.90086 -8.05184,-7.74312 -8.05184,-7.74312 0,0 7.06142,-2.50818 8.53983,-2.95531 1.47841,-0.44717 5.37038,-10.56149 2.39762,-31.88119 -2.97275,-21.31969 -11.75134,-46.03464 -11.75134,-46.03464 l -9.4924,-0.60451 -9.04375,-8.56024 3.5055,-14.65033 -5.01194,-14.44779 c 9.03618,-4.49712 20.32769,-3.64262 27.38235,-2.31249 l 16.4475,-6.15389 10.38672,3.56131 -7.24611,9.6041 c 0,0 6.84832,3.02335 12.33685,6.91794 4.7226,3.35109 9.13627,7.41988 10.41016,8.61657 z"
         style="fill:#ffcc00;fill-opacity:1;stroke:none;stroke-width:0.297797;stroke-linecap:butt;stroke-linejoin:miter;stroke-miterlimit:4;stroke-dasharray:none;stroke-opacity:1" />
      <path
         sodipodi:nodetypes="ccscczcccc"
         inkscape:connector-curvature="0"
         id="path1030-9-2"
         transform="scale(0.26458333)"
         d="m -928.98242,-1061.4609 c 16.43249,-26.0697 41.85958,-50.6066 80.58398,-56.8301 90.66864,-14.5718 160.28839,-3.238 195.90821,6.4765 35.61978,9.7145 142.47851,123.05278 142.47851,123.05278 42.54818,9.42641 85.91357,10.33494 129.35156,9.23438 -75.22351,-17.27278 -154.98205,-153.28406 -287.85853,-168.86456 -132.87649,-15.5804 -223.33438,17.2501 -260.46373,86.931 z m 418.9707,72.69918 c 0,0 -2.43771,-0.97294 -6.8418,-2.57031 2.34302,1.0729 4.62779,1.9467 6.8418,2.57031 z"
         style="fill:#cecece;fill-opacity:1;stroke:none;stroke-width:1.12376px;stroke-linecap:butt;stroke-linejoin:miter;stroke-opacity:1" />
      <path
         sodipodi:nodetypes="ccsczc"
         inkscape:connector-curvature="0"
         id="path994-6-4"
         d="m -253.174,-261.61 c 0,0 4.7123,-30.4156 28.7017,-34.27102 23.98941,-3.85546 42.40985,-0.85678 51.83426,1.71352 9.4244,2.57029 37.69763,32.5575 37.69763,32.5575 0,0 -28.4993,7.53729 -65.54248,7.71089 -37.04318,0.17359 -52.69111,-7.71089 -52.69111,-7.71089 z"
         style="fill:#ffcc00;fill-opacity:1;stroke:none;stroke-width:0.297329px;stroke-linecap:butt;stroke-linejoin:miter;stroke-opacity:1" />
      <path
         style="fill:#cecece;fill-opacity:1;stroke:none;stroke-width:0.297329px;stroke-linecap:butt;stroke-linejoin:miter;stroke-opacity:1"
         d="m -213.65599,-432.37709 0.9155,-17.64237 16.4475,-6.15389 10.38672,3.56131 -7.24611,9.6041 -15.7914,12.55857 z"
         id="path996-2-4"
         inkscape:connector-curvature="0"
         sodipodi:nodetypes="ccccccc" />
      <path
         sodipodi:nodetypes="cccccc"
         inkscape:connector-curvature="0"
         id="path998-0-3"
         d="m -185.90627,-452.61204 -7.24611,9.6041 -15.7914,12.55857 3.61232,-7.48562 9.33032,-8.7986 z"
         style="fill:#e3e3e3;fill-opacity:1;stroke:none;stroke-width:0.297329px;stroke-linecap:butt;stroke-linejoin:miter;stroke-opacity:1" />
      <path
         style="fill:#cecece;fill-opacity:1;stroke:none;stroke-width:0.297329px;stroke-linecap:butt;stroke-linejoin:miter;stroke-opacity:1"
         d="m -220.08025,-409.4441 -9.4924,-0.60451 -9.04375,-8.56024 3.5055,-14.65033 5.98973,2.7004 10.79642,16.15969 z"
         id="path1010-0-4"
         inkscape:connector-curvature="0"
         sodipodi:nodetypes="ccccccc" />
      <path
         inkscape:connector-curvature="0"
         id="path1012-6-3"
         d="m -390.20488,-485.0799 a 2.4200001,2.624378 0 0 1 -2.42,2.62438 2.4200001,2.624378 0 0 1 -2.42,-2.62438 2.4200001,2.624378 0 0 1 2.42,-2.62437 2.4200001,2.624378 0 0 1 2.42,2.62437 z"
         style="opacity:1;fill:#ff0000;fill-opacity:1;stroke:none;stroke-width:0.310117;stroke-linecap:round;stroke-linejoin:round;stroke-miterlimit:4;stroke-dasharray:none;stroke-dashoffset:0;stroke-opacity:1"
         transform="matrix(1,0,-0.38689641,0.92212319,0,0)" />
      <path
         inkscape:connector-curvature="0"
         id="ellipse1014-6-0"
         transform="scale(0.26458333)"
         d="m -765.73828,-1697.5312 h -0.004 a 7.4267622,11.264352 50.924016 0 1 0.27735,6.9336 7.4267622,11.264352 50.924016 0 1 -12.98438,9.1465 7.4267622,11.264352 50.924016 0 1 -4.3418,-1.4727 l 3.45118,3.4805 c 1.04783,1.0305 2.59283,1.6348 4.5332,1.6348 5.05145,0 10.86494,-4.0951 12.98437,-9.1465 1.13396,-2.7027 0.9815,-5.1303 -0.17968,-6.8047 z m -17.58789,14.0566 -0.008,0.01 0.12695,0.127 a 7.4267622,11.264352 50.924016 0 1 -0.11914,-0.1328 z"
         style="opacity:1;fill:#ad0000;fill-opacity:1;stroke:none;stroke-width:1.12553;stroke-linecap:round;stroke-linejoin:round;stroke-miterlimit:4;stroke-dasharray:none;stroke-dashoffset:0;stroke-opacity:1" />
      <path
         sodipodi:nodetypes="sscccscs"
         inkscape:connector-curvature="0"
         id="path1024-5-8"
         d="m -192.50057,-410.75387 c 0.15146,4.08932 5.75533,7.2699 8.48154,25.44461 2.7262,18.17473 0.75728,33.77469 0.30291,36.8038 -0.45437,3.02914 -0.75728,3.48351 -0.45437,5.30096 0.30291,1.81747 9.1144,7.6213 9.1144,7.6213 0,0 -0.34146,-24.00848 -1.82709,-39.3854 -1.48563,-15.37692 -7.11221,-45.26555 -7.11221,-45.26555 0,0 -8.65664,5.39096 -8.50518,9.48028 z"
         style="fill:#cecece;fill-opacity:1;stroke:none;stroke-width:0.297329px;stroke-linecap:butt;stroke-linejoin:miter;stroke-opacity:1" />
      <path
         style="fill:#ffea50;fill-opacity:1;stroke:none;stroke-width:0.297797;stroke-linecap:butt;stroke-linejoin:miter;stroke-miterlimit:4;stroke-dasharray:none;stroke-opacity:1"
         d="m -143.04021,-323.91676 c 0,0 -55.73945,6.98778 -68.17431,3.08692 -12.43484,-3.90086 -8.05184,-7.74312 -8.05184,-7.74312 l 0.60432,-0.21228 c 3.38001,12.31063 40.15134,7.21047 75.62183,4.86848 z"
         id="path1035-1-9"
         inkscape:connector-curvature="0"
         sodipodi:nodetypes="czccc" />
    </g>
  </g>
</svg>
