<?xml version="1.0" encoding="UTF-8" standalone="no"?>
<!-- Created with Inkscape (http://www.inkscape.org/) -->

<svg
   width="131"
   height="24"
   viewBox="0 0 34.660417 6.3499998"
   version="1.1"
   id="svg1136"
   inkscape:version="1.1.2 (b8e25be833, 2022-02-05)"
   sodipodi:docname="logo.svg"
   xmlns:inkscape="http://www.inkscape.org/namespaces/inkscape"
   xmlns:sodipodi="http://sodipodi.sourceforge.net/DTD/sodipodi-0.dtd"
   xmlns="http://www.w3.org/2000/svg"
   xmlns:svg="http://www.w3.org/2000/svg">
  <sodipodi:namedview
     id="namedview1138"
     pagecolor="#ffffff"
     bordercolor="#666666"
     borderopacity="1.0"
     inkscape:pageshadow="2"
     inkscape:pageopacity="0.0"
     inkscape:pagecheckerboard="0"
     inkscape:document-units="px"
     showgrid="false"
     units="px"
     width="131px"
     inkscape:zoom="4.7557252"
     inkscape:cx="65.5"
     inkscape:cy="11.985554"
     inkscape:window-width="1366"
     inkscape:window-height="705"
     inkscape:window-x="-8"
     inkscape:window-y="-8"
     inkscape:window-maximized="1"
     inkscape:current-layer="layer1" />
  <defs
     id="defs1133" />
  <g
     inkscape:label="Layer 1"
     inkscape:groupmode="layer"
     id="layer1">
    <path
       style="fill:#4d4d4d;fill-opacity:1;stroke:none;stroke-width:0.917597;stroke-linecap:round;stroke-linejoin:round;stroke-miterlimit:4;stroke-dasharray:none;stroke-dashoffset:0;stroke-opacity:1"
       d="M 0,6.3499999 V 1.2139057 C 0,0.5414025 0.541402,0 1.213906,0 h 32.232606 c 0.672504,0 1.213904,0.5414025 1.213904,1.2139057 v 5.1360942 z"
       id="rect939"
       inkscape:connector-curvature="0"
       sodipodi:nodetypes="csssscc"
       inkscape:export-filename="D:\Projects\Software\Joystick\logo.png"
       inkscape:export-xdpi="17.620001"
       inkscape:export-ydpi="17.620001" />
    <g
       aria-label="Rocket-Scinetist.Me"
       id="text926"
       style="font-size:2.27182px;line-height:1.25;text-align:center;letter-spacing:0px;word-spacing:0px;text-anchor:middle;fill:#ffffff;stroke-width:0.0485561">
      <path
         d="m 9.6006131,2.512008 q 0.3316857,0 0.4884409,0.1204065 0.159028,0.1204065 0.159028,0.365763 0,0.1113192 -0.04317,0.1953766 -0.04089,0.081786 -0.111319,0.1408528 -0.06816,0.056796 -0.1476683,0.093145 L 10.423012,4.1340876 H 10.041346 L 9.6551368,3.5116089 H 9.4711193 V 4.1340876 H 9.1280745 V 2.512008 Z m -0.02499,0.2817057 H 9.4711193 V 3.232175 h 0.1113192 q 0.1703865,0 0.2430848,-0.056795 0.07497,-0.056796 0.07497,-0.1681147 0,-0.1158628 -0.079514,-0.163571 -0.079514,-0.04998 -0.2453565,-0.04998 z"
         style="font-weight:bold;-inkscape-font-specification:'sans-serif Bold'"
         id="path3234" />
      <path
         d="m 11.727036,3.5116089 q 0,0.3089675 -0.163571,0.4770822 -0.161299,0.1681147 -0.440733,0.1681147 -0.172658,0 -0.308967,-0.07497 -0.134038,-0.07497 -0.21128,-0.2180947 -0.07724,-0.1453965 -0.07724,-0.3521321 0,-0.3089676 0.1613,-0.4748104 0.161299,-0.1658429 0.443005,-0.1658429 0.17493,0 0.308967,0.07497 0.134038,0.07497 0.211279,0.2180947 0.07724,0.1431247 0.07724,0.3475885 z m -0.856476,0 q 0,0.1840174 0.05907,0.2794338 0.06134,0.093145 0.197649,0.093145 0.134037,0 0.193104,-0.093145 0.06134,-0.095416 0.06134,-0.2794338 0,-0.1840175 -0.06134,-0.2748903 -0.05907,-0.093145 -0.195376,-0.093145 -0.134037,0 -0.195377,0.093145 -0.05907,0.090873 -0.05907,0.2748903 z"
         style="font-weight:bold;-inkscape-font-specification:'sans-serif Bold'"
         id="path3236" />
      <path
         d="m 12.510813,4.1568058 q -0.277162,0 -0.429374,-0.152212 -0.14994,-0.1522119 -0.14994,-0.4838977 0,-0.227182 0.07724,-0.3703066 0.07724,-0.1431247 0.213551,-0.2112793 0.138581,-0.068155 0.318055,-0.068155 0.127222,0 0.220366,0.02499 0.09542,0.02499 0.165843,0.059067 l -0.09996,0.2612594 q -0.07951,-0.031805 -0.14994,-0.052252 -0.06815,-0.020446 -0.136309,-0.020446 -0.263531,0 -0.263531,0.3748503 0,0.1862893 0.06815,0.2748903 0.07043,0.088601 0.195377,0.088601 0.106775,0 0.188561,-0.027262 0.08179,-0.029534 0.159027,-0.079514 v 0.2885211 q -0.07724,0.04998 -0.163571,0.070426 -0.08406,0.022718 -0.213551,0.022718 z"
         style="font-weight:bold;-inkscape-font-specification:'sans-serif Bold'"
         id="path3238" />
      <path
         d="m 13.512686,2.4075043 v 0.7724188 q 0,0.070426 -0.0068,0.1408529 -0.0045,0.068155 -0.01136,0.138581 h 0.0045 q 0.03408,-0.047708 0.07043,-0.095416 0.03635,-0.047708 0.07724,-0.093145 l 0.347589,-0.3771221 h 0.381665 l -0.492985,0.5384214 0.522519,0.7019924 H 14.014758 L 13.658082,3.6320153 13.512686,3.7478782 V 4.1340876 H 13.174185 V 2.4075043 Z"
         style="font-weight:bold;-inkscape-font-specification:'sans-serif Bold'"
         id="path3240" />
      <path
         d="m 15.093874,2.8709556 q 0.256716,0 0.406656,0.1476683 0.14994,0.1453965 0.14994,0.4157431 v 0.163571 h -0.79968 q 0.0045,0.1431247 0.08406,0.2249102 0.08179,0.081786 0.22491,0.081786 0.118135,0 0.215823,-0.022718 0.09996,-0.02499 0.204464,-0.07497 v 0.2612593 q -0.09314,0.045436 -0.193105,0.065883 -0.09996,0.022718 -0.243085,0.022718 -0.186289,0 -0.329414,-0.068155 -0.143124,-0.070426 -0.22491,-0.2090075 -0.08179,-0.1408528 -0.08179,-0.3566757 0,-0.2158229 0.0727,-0.3612194 0.07497,-0.1453965 0.206736,-0.2180948 0.131765,-0.072698 0.306695,-0.072698 z m 0.0023,0.2408129 q -0.09996,0 -0.163571,0.063611 -0.06361,0.063611 -0.07497,0.1976483 h 0.47481 q -0.0023,-0.1113191 -0.06134,-0.1862892 -0.0568,-0.07497 -0.17493,-0.07497 z"
         style="font-weight:bold;-inkscape-font-specification:'sans-serif Bold'"
         id="path3242" />
      <path
         d="m 16.447878,3.8864592 q 0.0568,0 0.109047,-0.00909 0.05225,-0.011359 0.104504,-0.029534 v 0.2521721 q -0.05452,0.02499 -0.136309,0.040893 -0.07951,0.015903 -0.17493,0.015903 -0.111319,0 -0.19992,-0.036349 -0.08633,-0.036349 -0.138581,-0.1249501 -0.04998,-0.088601 -0.04998,-0.2499002 V 3.1481177 h -0.1613 V 3.004993 l 0.18629,-0.113591 0.09769,-0.2612593 h 0.215823 v 0.2635311 h 0.347588 V 3.1481177 H 16.30021 v 0.5974886 q 0,0.070426 0.04089,0.1067756 0.04089,0.034077 0.106775,0.034077 z"
         style="font-weight:bold;-inkscape-font-specification:'sans-serif Bold'"
         id="path3244" />
      <path
         d="m 16.802282,3.6638208 v -0.277162 h 0.595217 v 0.277162 z"
         style="font-weight:bold;-inkscape-font-specification:'sans-serif Bold'"
         id="path3246" />
      <path
         d="m 18.626554,3.6842672 q 0,0.2158229 -0.156755,0.3453166 -0.154484,0.127222 -0.440733,0.127222 -0.256716,0 -0.458908,-0.097688 V 3.7387909 q 0.115863,0.04998 0.238541,0.093145 0.12495,0.040893 0.247629,0.040893 0.127222,0 0.179473,-0.047708 0.05452,-0.04998 0.05452,-0.1249501 0,-0.061339 -0.04316,-0.1045037 -0.04089,-0.043165 -0.111319,-0.079514 -0.07043,-0.038621 -0.161299,-0.081786 -0.0568,-0.027262 -0.122678,-0.063611 -0.06588,-0.038621 -0.127222,-0.093145 -0.05907,-0.056796 -0.09769,-0.1363092 -0.03862,-0.079514 -0.03862,-0.1908329 0,-0.2180947 0.147668,-0.3385012 0.147668,-0.1226783 0.402112,-0.1226783 0.127222,0 0.240813,0.029534 0.113591,0.029534 0.240813,0.084057 L 18.50842,2.8709556 q -0.111319,-0.045436 -0.19992,-0.070426 -0.0886,-0.02499 -0.181746,-0.02499 -0.09769,0 -0.14994,0.045436 -0.05225,0.045436 -0.05225,0.1181346 0,0.086329 0.07724,0.1363092 0.07724,0.04998 0.229454,0.1226783 0.12495,0.059067 0.211279,0.1226783 0.0886,0.063611 0.136309,0.1499401 0.04771,0.086329 0.04771,0.2135511 z"
         style="font-weight:bold;-inkscape-font-specification:'sans-serif Bold'"
         id="path3248" />
      <path
         d="m 19.398975,4.1568058 q -0.277162,0 -0.429374,-0.152212 -0.14994,-0.1522119 -0.14994,-0.4838977 0,-0.227182 0.07724,-0.3703066 0.07724,-0.1431247 0.213551,-0.2112793 0.138581,-0.068155 0.318055,-0.068155 0.127222,0 0.220366,0.02499 0.09542,0.02499 0.165843,0.059067 l -0.09996,0.2612594 q -0.07951,-0.031805 -0.14994,-0.052252 -0.06815,-0.020446 -0.136309,-0.020446 -0.263531,0 -0.263531,0.3748503 0,0.1862893 0.06815,0.2748903 0.07043,0.088601 0.195377,0.088601 0.106775,0 0.188561,-0.027262 0.08179,-0.029534 0.159027,-0.079514 v 0.2885211 q -0.07724,0.04998 -0.163571,0.070426 -0.08406,0.022718 -0.213551,0.022718 z"
         style="font-weight:bold;-inkscape-font-specification:'sans-serif Bold'"
         id="path3250" />
      <path
         d="m 20.232733,2.4075043 q 0.07497,0 0.129493,0.036349 0.05452,0.034077 0.05452,0.1294938 0,0.093145 -0.05452,0.1294937 -0.05452,0.036349 -0.129493,0.036349 -0.07724,0 -0.131766,-0.036349 -0.05225,-0.036349 -0.05225,-0.1294937 0,-0.095417 0.05225,-0.1294938 0.05452,-0.036349 0.131766,-0.036349 z m 0.168114,0.4861695 V 4.1340876 H 20.062346 V 2.8936738 Z"
         style="font-weight:bold;-inkscape-font-specification:'sans-serif Bold'"
         id="path3252" />
      <path
         d="m 21.459517,2.8709556 q 0.19992,0 0.320326,0.1090474 0.120407,0.1067755 0.120407,0.3453166 v 0.808768 H 21.561749 V 3.409377 q 0,-0.1340374 -0.04771,-0.1999202 -0.04771,-0.068155 -0.152211,-0.068155 -0.154484,0 -0.21128,0.1067755 -0.0568,0.1045038 -0.0568,0.3021521 V 4.1340876 H 20.755253 V 2.8936738 h 0.258987 l 0.04544,0.1590274 h 0.01817 q 0.05907,-0.095416 0.161299,-0.138581 0.104504,-0.043165 0.220367,-0.043165 z"
         style="font-weight:bold;-inkscape-font-specification:'sans-serif Bold'"
         id="path3254" />
      <path
         d="m 22.758996,2.8709556 q 0.256716,0 0.406656,0.1476683 0.14994,0.1453965 0.14994,0.4157431 v 0.163571 h -0.79968 q 0.0045,0.1431247 0.08406,0.2249102 0.08179,0.081786 0.22491,0.081786 0.118135,0 0.215823,-0.022718 0.09996,-0.02499 0.204464,-0.07497 v 0.2612593 q -0.09314,0.045436 -0.193105,0.065883 -0.09996,0.022718 -0.243085,0.022718 -0.186289,0 -0.329414,-0.068155 -0.143124,-0.070426 -0.22491,-0.2090075 -0.08179,-0.1408528 -0.08179,-0.3566757 0,-0.2158229 0.0727,-0.3612194 0.07497,-0.1453965 0.206736,-0.2180948 0.131765,-0.072698 0.306695,-0.072698 z m 0.0023,0.2408129 q -0.09996,0 -0.163571,0.063611 -0.06361,0.063611 -0.07497,0.1976483 h 0.47481 q -0.0023,-0.1113191 -0.06134,-0.1862892 -0.0568,-0.07497 -0.17493,-0.07497 z"
         style="font-weight:bold;-inkscape-font-specification:'sans-serif Bold'"
         id="path3256" />
      <path
         d="m 24.113,3.8864592 q 0.0568,0 0.109047,-0.00909 0.05225,-0.011359 0.104504,-0.029534 v 0.2521721 q -0.05452,0.02499 -0.136309,0.040893 -0.07951,0.015903 -0.17493,0.015903 -0.111319,0 -0.19992,-0.036349 -0.08633,-0.036349 -0.138581,-0.1249501 -0.04998,-0.088601 -0.04998,-0.2499002 V 3.1481177 h -0.1613 V 3.004993 l 0.18629,-0.113591 0.09769,-0.2612593 h 0.215823 v 0.2635311 h 0.347588 v 0.2544439 h -0.347588 v 0.5974886 q 0,0.070426 0.04089,0.1067756 0.04089,0.034077 0.106775,0.034077 z"
         style="font-weight:bold;-inkscape-font-specification:'sans-serif Bold'"
         id="path3258" />
      <path
         d="m 24.746839,2.4075043 q 0.07497,0 0.129493,0.036349 0.05452,0.034077 0.05452,0.1294938 0,0.093145 -0.05452,0.1294937 -0.05452,0.036349 -0.129493,0.036349 -0.07724,0 -0.131766,-0.036349 -0.05225,-0.036349 -0.05225,-0.1294937 0,-0.095417 0.05225,-0.1294938 0.05452,-0.036349 0.131766,-0.036349 z m 0.168114,0.4861695 V 4.1340876 H 24.576452 V 2.8936738 Z"
         style="font-weight:bold;-inkscape-font-specification:'sans-serif Bold'"
         id="path3260" />
      <path
         d="m 26.134921,3.7660527 q 0,0.1885611 -0.134038,0.290793 -0.131765,0.09996 -0.395296,0.09996 -0.129494,0 -0.222639,-0.018175 -0.09314,-0.015903 -0.186289,-0.054524 V 3.8046737 q 0.09996,0.045436 0.215823,0.07497 0.115863,0.029534 0.204464,0.029534 0.09769,0 0.140853,-0.029534 0.04316,-0.029534 0.04316,-0.077242 0,-0.031805 -0.01817,-0.056796 -0.0159,-0.02499 -0.0727,-0.056795 -0.0568,-0.031806 -0.177202,-0.081786 -0.118135,-0.04998 -0.193105,-0.097688 -0.0727,-0.04998 -0.109048,-0.1181346 -0.03635,-0.070426 -0.03635,-0.1749301 0,-0.1726584 0.134038,-0.2589875 0.134037,-0.086329 0.356676,-0.086329 0.115862,0 0.220366,0.022718 0.104504,0.022718 0.215823,0.07497 l -0.102232,0.2430847 q -0.09087,-0.038621 -0.172658,-0.063611 -0.08179,-0.027262 -0.165843,-0.027262 -0.14994,0 -0.14994,0.081785 0,0.029534 0.01817,0.054524 0.02045,0.022718 0.07497,0.04998 0.0568,0.027262 0.165843,0.072698 0.106776,0.043165 0.184018,0.090873 0.07724,0.045436 0.118134,0.1158628 0.04316,0.070426 0.04316,0.1794738 z"
         style="font-weight:bold;-inkscape-font-specification:'sans-serif Bold'"
         id="path3262" />
      <path
         d="m 26.920971,3.8864592 q 0.0568,0 0.109047,-0.00909 0.05225,-0.011359 0.104504,-0.029534 v 0.2521721 q -0.05452,0.02499 -0.136309,0.040893 -0.07951,0.015903 -0.17493,0.015903 -0.111319,0 -0.19992,-0.036349 -0.08633,-0.036349 -0.138581,-0.1249501 -0.04998,-0.088601 -0.04998,-0.2499002 V 3.1481177 h -0.1613 V 3.004993 l 0.18629,-0.113591 0.09769,-0.2612593 h 0.215823 v 0.2635311 h 0.347588 v 0.2544439 h -0.347588 v 0.5974886 q 0,0.070426 0.04089,0.1067756 0.04089,0.034077 0.106775,0.034077 z"
         style="font-weight:bold;-inkscape-font-specification:'sans-serif Bold'"
         id="path3264" />
      <path
         d="m 27.336714,3.9750602 q 0,-0.1045038 0.0568,-0.1453965 0.0568,-0.043165 0.138581,-0.043165 0.07951,0 0.13631,0.043165 0.0568,0.040893 0.0568,0.1453965 0,0.09996 -0.0568,0.1453964 -0.0568,0.043165 -0.13631,0.043165 -0.08179,0 -0.138581,-0.043165 -0.0568,-0.045436 -0.0568,-0.1453964 z"
         style="font-weight:bold;-inkscape-font-specification:'sans-serif Bold'"
         id="path3266" />
      <path
         d="M 28.745242,4.1340876 28.354489,2.8618683 h -0.0091 q 0.0023,0.045436 0.0068,0.1363092 0.0045,0.090873 0.0091,0.1953766 0.0045,0.1045037 0.0045,0.1862892 V 4.1340876 H 28.059152 V 2.512008 h 0.467995 l 0.383938,1.2404138 h 0.0068 L 29.324556,2.512008 h 0.467995 V 4.1340876 H 29.472225 V 3.3662124 q 0,-0.077242 0.0023,-0.177202 0.0045,-0.09996 0.0068,-0.1885611 0.0045,-0.090873 0.0068,-0.1363092 h -0.0091 l -0.418015,1.2699475 z"
         style="font-weight:bold;-inkscape-font-specification:'sans-serif Bold'"
         id="path3268" />
      <path
         d="m 30.685378,2.8709556 q 0.256716,0 0.406656,0.1476683 0.14994,0.1453965 0.14994,0.4157431 v 0.163571 h -0.79968 q 0.0045,0.1431247 0.08406,0.2249102 0.08179,0.081786 0.22491,0.081786 0.118135,0 0.215823,-0.022718 0.09996,-0.02499 0.204464,-0.07497 v 0.2612593 q -0.09314,0.045436 -0.193105,0.065883 -0.09996,0.022718 -0.243085,0.022718 -0.186289,0 -0.329413,-0.068155 -0.143125,-0.070426 -0.224911,-0.2090075 -0.08179,-0.1408528 -0.08179,-0.3566757 0,-0.2158229 0.0727,-0.3612194 0.07497,-0.1453965 0.206736,-0.2180948 0.131765,-0.072698 0.306695,-0.072698 z m 0.0023,0.2408129 q -0.09996,0 -0.163571,0.063611 -0.06361,0.063611 -0.07497,0.1976483 h 0.474811 q -0.0023,-0.1113191 -0.06134,-0.1862892 -0.0568,-0.07497 -0.17493,-0.07497 z"
         style="font-weight:bold;-inkscape-font-specification:'sans-serif Bold'"
         id="path3270" />
    </g>
    <path
       inkscape:connector-curvature="0"
       id="path3454"
       style="font-style:normal;font-weight:normal;font-size:8.16517px;line-height:125%;font-family:Sans;-inkscape-font-specification:Sans;letter-spacing:0px;word-spacing:0px;fill:#ffcc00;fill-opacity:1;stroke:none;stroke-width:0.0107354"
       d="m 2.791107,2.2004122 c 0.09806,0.118782 0.351172,0.4432293 0.36195,0.6389575 0.01321,0.24279 -0.183384,0.7916903 -0.35997,0.92517 C 2.655967,3.8682521 2.344269,3.9654617 2.20793,4.004888 L 2.14937,4.021254 2.13931,4.025324 c 0,0 -0.02498,0.09194 0.03122,0.1996282 0.03592,0.06854 0.0857,0.1350753 0.196506,0.1447049 0.01501,0.272894 -0.273329,0.4692342 -0.273329,0.4692342 0,0 0.781377,-0.2408608 1.713416,-0.3732396 0.93204,-0.132372 2.02741,-0.229529 2.02741,-0.229529 h -1.6e-5 c 0,0 -0.0031,-0.069545 -0.0024,-0.1064939 0.0033,-0.186567 0.04036,-0.3951337 0.04036,-0.3981348 C 5.994454,3.697148 6.126787,3.654946 6.247984,3.6063061 6.59758,3.4672253 6.576446,3.2973645 6.576446,3.2973645 c 0,0 -0.284618,-0.1833551 -0.724278,-0.3487509 C 5.412476,2.7828016 5.463918,2.4396104 4.917802,2.0756611 4.371701,1.7116354 4.248134,1.9046377 3.679711,1.8384602 3.154341,1.7777107 3.192181,1.7077033 3.061439,1.6885759 2.930697,1.6691058 2.791203,1.8655981 2.759711,1.9756171 c -0.0311,0.108435 -0.0099,0.1737549 -0.0092,0.1753477 z M 4.558636,2.152964 C 4.431077,2.143039 4.249687,2.1324691 4.134902,2.1384421 4.024079,2.1445611 4.002163,2.1058641 3.914067,2.0742378 c -0.08768,-0.031164 -0.241551,-0.05634 -0.241551,-0.05634 0,0 0.115986,-0.03401 0.188952,-0.028722 0.07294,0.00612 0.05503,-0.012092 0.23837,0.069747 0.114801,0.051852 0.320491,0.080161 0.458798,0.094437 z M 2.22132,3.9861497 C 2.21512,3.9556767 2.20691,3.9108407 2.20135,3.8582682 2.18507,3.7135661 2.19655,3.5819515 2.19655,3.5819515 c 0,0 -0.05423,0.1901595 -0.04302,0.3233696 0.0048,0.053752 0.0074,0.076513 0.0092,0.097198 M 2.745081,2.1777215 c -0.0021,0 -0.01306,0.012092 -0.06857,0.089697 -0.06177,0.086122 -0.103636,0.2531046 -0.103636,0.2531046 0,0 0.04587,-0.099607 0.115178,-0.1909352 0.04664,-0.060814 0.09329,-0.099292 0.09767,-0.1024154 M 2.03936,4.887057 C 3.06529,4.7213624 3.976946,4.6337883 5.150207,4.6324882 c 0.409954,-2.936e-4 0.851837,0.00963 1.341708,0.030578 0,0 -0.516997,-0.1439231 -0.615465,-0.2718752 0,0 -0.665421,-0.00234 -1.931446,0.1435515 C 2.678977,4.6807562 2.03936,4.8870568 2.03936,4.887057 Z"
       inkscape:export-filename="C:\Users\User\Desktop\templatemo_515_eatery\images\logo.png"
       inkscape:export-xdpi="655.59998"
       inkscape:export-ydpi="655.59998" />
  </g>
</svg>
